<?xml version="1.0" standalone="no"?>
<!DOCTYPE svg PUBLIC "-//W3C//DTD SVG 20010904//EN"
 "http://www.w3.org/TR/2001/REC-SVG-20010904/DTD/svg10.dtd">
<svg version="1.0" xmlns="http://www.w3.org/2000/svg"
 width="700.000000pt" height="700.000000pt" viewBox="0 0 700.000000 700.000000"
 preserveAspectRatio="xMidYMid meet">
<metadata>
Created by potrace 1.11, written by Peter Selinger 2001-2013
</metadata>
<g transform="translate(0.000000,700.000000) scale(0.100000,-0.100000)"
fill="#000000" stroke="none">
<path d="M3479 6996 c-2 -2 -47 -7 -99 -11 -52 -3 -106 -8 -120 -10 -14 -2
-55 -6 -92 -10 -37 -3 -75 -7 -85 -9 -10 -2 -40 -7 -68 -10 -107 -14 -135 -18
-270 -42 -77 -13 -151 -26 -165 -29 -42 -8 -183 -36 -210 -41 -98 -18 -336
-84 -440 -121 -521 -186 -843 -477 -1096 -989 -63 -128 -142 -335 -158 -417
-35 -170 -89 -334 -181 -547 -57 -132 -73 -188 -71 -260 2 -99 46 -181 153
-284 91 -87 113 -120 104 -151 -10 -34 -135 -274 -204 -391 -83 -143 -179
-285 -306 -454 -151 -201 -185 -281 -161 -379 23 -97 107 -178 286 -276 55
-30 109 -64 119 -75 35 -39 25 -95 -43 -232 -93 -184 -87 -234 33 -329 36 -28
65 -52 65 -54 0 -1 -7 -18 -15 -38 -36 -87 -25 -175 29 -225 17 -16 66 -50
109 -76 42 -26 82 -56 87 -66 14 -27 12 -88 -5 -172 -35 -165 -13 -348 59
-483 23 -44 29 -51 87 -111 95 -97 278 -145 404 -104 17 5 43 11 58 14 15 3
51 12 80 20 29 8 63 17 77 20 54 10 375 108 559 169 l195 66 40 -32 c153 -117
294 -356 397 -671 22 -65 44 -127 50 -137 27 -51 -46 -49 1558 -45 l1490 4 36
22 c24 15 38 33 46 60 16 53 -11 122 -109 282 -41 68 -93 161 -115 208 -88
189 -182 541 -221 830 -20 151 -23 161 -59 192 -11 10 -28 18 -38 18 -10 0
-25 7 -33 16 -14 13 -15 38 -11 172 3 86 7 168 9 182 2 14 4 35 5 46 0 12 19
44 41 70 65 79 82 136 86 297 l4 137 44 93 c58 123 126 232 255 410 276 383
284 396 361 555 82 168 134 345 158 532 9 74 8 423 -2 535 -4 50 -9 108 -11
130 -9 112 -80 430 -124 560 -104 298 -298 580 -541 786 -155 131 -451 333
-615 420 -55 29 -102 54 -105 56 -2 2 -5 71 -6 152 -1 137 -3 151 -24 179 -43
58 -125 64 -175 15 -14 -14 -26 -30 -26 -34 -1 -5 -3 -13 -4 -19 -1 -5 -3 -50
-4 -99 l-1 -88 -107 34 c-124 39 -172 53 -193 57 -41 6 -57 18 -57 39 1 57
-46 104 -112 113 -14 2 -62 8 -106 15 -74 10 -488 23 -496 15z"/>
<path d="M6185 6341 c-11 -5 -84 -74 -162 -153 -112 -113 -143 -150 -148 -178
-15 -81 50 -150 127 -136 43 7 57 19 203 165 l140 141 0 55 c0 46 -4 59 -26
81 -29 28 -97 41 -134 25z"/>
<path d="M6508 4778 c-46 -9 -88 -59 -88 -104 0 -50 26 -93 65 -110 52 -21
404 -20 450 2 80 38 80 161 0 204 -27 14 -365 21 -427 8z"/>
</g>
</svg>
