<?xml version="1.0"?>
<svg xmlns="http://www.w3.org/2000/svg" xmlns:xlink="http://www.w3.org/1999/xlink" width="512px" height="512px" viewBox="0 0 60 60" version="1.1" class=""><g><script xmlns=""/><title>010 - Idea</title><desc>Created with Sketch.</desc><defs/><g id="Page-1" stroke="none" stroke-width="1" fill="none" fill-rule="evenodd"><g id="010---Idea" transform="translate(-1.000000, -1.000000)"><path d="M47.26,38.71 C45.9803538,41.6319437 45.5006323,44.8415908 45.87,48.01 C46.0951005,50.0721875 46.5033794,52.1102353 47.09,54.1 C47.4048963,55.1305317 47.802868,56.1338218 48.28,57.1 C48.8718004,58.0090608 49.4061765,58.9542385 49.88,59.93 L24.78,60 L24.78,59.99 C24.7,59.69 23.19,53.81 19.85,52.3 C19.23,52.52 18.57,52.74 17.9,52.97 C15.6789002,53.7404523 13.4191713,54.3946722 11.13,54.93 C10.4993821,55.0806865 9.83512584,54.9878335 9.27,54.67 C8.62676625,54.2742562 8.14753634,53.660132 7.92,52.94 C7.65806229,52.2276891 7.56229323,51.4649569 7.64,50.71 C7.87036773,49.9391054 7.94848689,49.1307419 7.87,48.33 C7.61,47.32 6.65,47.07 5.89,46.53 C5.27,46.09 6.38,44.68 6.38,44.68 C6.38,44.68 5.2,43.81 4.78,43.43 C4.34,43.07 4.96,42.45 5.51,41.28 C5.73694079,40.7719796 5.80323378,40.2067446 5.7,39.66 C5.49,38.59 3.87,38.18 3.07,37.59 C2.69,37.31 2.08,36.89 2.01,36.38 C1.9,35.67 2.74,34.67 3.15,34.17 C4.89454657,31.9217816 6.38996718,29.4908848 7.61,26.92 C7.77010631,26.6486227 7.86589137,26.3441631 7.89,26.03 C7.87,24.6 5.8,24.01 5.61,22.62 C5.58022555,22.2120559 5.65239212,21.803112 5.82,21.43 C6.39667192,20.2042401 6.89109856,18.9414478 7.3,17.65 C7.54612792,16.4653226 7.86336869,15.2965408 8.25,14.15 C9.08859812,11.8496676 10.3808376,9.74127689 12.05,7.95 C14.5,5.36 18.12,4.08 21.54,3.4 C24.5813721,2.73504394 27.6655865,2.28393999 30.77,2.05 C30.87,2.04 30.97,2.04 31.07,2.03 C37.47,1.71 42.53,3.88 47.49,7.76 C50.1927291,9.77631392 52.1683037,12.6151058 53.12,15.85 C53.8451888,18.5213389 54.1852867,21.2825294 54.13,24.05 C54.110834,26.7831121 53.3129958,29.4541358 51.83,31.75 C50.34,34.1 48.39,36.14 47.26,38.71 Z" id="Shape" fill="#A4C2F7" fill-rule="nonzero" data-original="#A4C2F7"/><path d="M44.26,38.71 C42.9803538,41.6319437 42.5006323,44.8415908 42.87,48.01 C43.0951005,50.0721875 43.5033794,52.1102353 44.09,54.1 C44.4048963,55.1305317 44.802868,56.1338218 45.28,57.1 C45.8718004,58.0090608 46.4061765,58.9542385 46.88,59.93 L27.65,59.98 L24.78,59.99 C24.71,59.72 23.5,55.02 20.87,52.93 C20.5569122,52.679263 20.2143771,52.4676972 19.85,52.3 C19.82,52.31 19.8,52.32 19.77,52.33 C19.17,52.54 18.54,52.75 17.9,52.97 C17.89,52.96 17.87,52.95 17.86,52.94 C17.5556688,52.6794682 17.215538,52.4639398 16.85,52.3 C15.16,52.89 13.21,53.54 11.43,54.07 C10.67,54.3 9.94,54.5 9.27,54.67 C8.62676625,54.2742562 8.14753634,53.660132 7.92,52.94 C7.65806229,52.2276891 7.56229323,51.4649569 7.64,50.71 C7.87036773,49.9391054 7.94848689,49.1307419 7.87,48.33 C7.61,47.32 6.65,47.07 5.89,46.53 C5.27,46.09 6.38,44.68 6.38,44.68 C6.38,44.68 5.2,43.81 4.78,43.43 C4.34,43.07 4.96,42.45 5.51,41.28 C5.73694079,40.7719796 5.80323378,40.2067446 5.7,39.66 C5.49,38.59 3.87,38.18 3.07,37.59 C2.69,37.31 2.08,36.89 2.01,36.38 C1.9,35.67 2.74,34.67 3.15,34.17 C4.89454657,31.9217816 6.38996718,29.4908848 7.61,26.92 C7.77010631,26.6486227 7.86589137,26.3441631 7.89,26.03 C7.87,24.6 5.8,24.01 5.61,22.62 C5.58022555,22.2120559 5.65239212,21.803112 5.82,21.43 C6.39667192,20.2042401 6.89109856,18.9414478 7.3,17.65 C7.54612792,16.4653226 7.86336869,15.2965408 8.25,14.15 C9.08859812,11.8496676 10.3808376,9.74127689 12.05,7.95 C14.5,5.36 18.12,4.08 21.54,3.4 C24.5813721,2.73504394 27.6655865,2.28393999 30.77,2.05 C31.22,2.08 31.66,2.12 32.09,2.18 C36.6646239,2.84104823 40.9613464,4.77457335 44.49,7.76 C47.1927291,9.77631392 49.1683037,12.6151058 50.12,15.85 C50.8451888,18.5213389 51.1852867,21.2825294 51.13,24.05 C51.110834,26.7831121 50.3129958,29.4541358 48.83,31.75 C47.34,34.1 45.39,36.14 44.26,38.71 Z" id="Shape" fill="#FFFFFF" fill-rule="nonzero" data-original="#FFFFFF"/><path d="M44.26,38.71 C42.9803538,41.6319437 42.5006323,44.8415908 42.87,48.01 C43.0951005,50.0721875 43.5033794,52.1102353 44.09,54.1 C44.4048963,55.1305317 44.802868,56.1338218 45.28,57.1 C45.8718004,58.0090608 46.4061765,58.9542385 46.88,59.93 L27.65,59.98 C27.55,59.6 26.03,53.8 22.72,52.3 C22.13,52.51 21.51,52.72 20.87,52.93 C20.8385311,52.9475899 20.8049188,52.9610348 20.77,52.97 C20.4691967,52.7096627 20.1323908,52.4941069 19.77,52.33 C19.75,52.32 19.74,52.31 19.72,52.3 C19.13,52.51 18.5,52.72 17.86,52.94 C15.91,53.59 13.82,54.25 12.14,54.67 C11.8682142,54.5157011 11.6274621,54.3122486 11.43,54.07 C11.1453175,53.7384628 10.9279367,53.3546498 10.79,52.94 C10.5280623,52.2276891 10.4322932,51.4649569 10.51,50.71 C10.7403677,49.9391054 10.8184869,49.1307419 10.74,48.33 C10.48,47.32 9.52,47.07 8.76,46.53 C8.14,46.09 9.25,44.68 9.25,44.68 C9.25,44.68 8.07,43.81 7.65,43.43 C7.21,43.07 7.83,42.45 8.38,41.28 C8.60694079,40.7719796 8.67323378,40.2067446 8.57,39.66 C8.36,38.59 6.74,38.18 5.94,37.59 C5.56,37.31 4.95,36.89 4.88,36.38 C4.77,35.67 5.61,34.67 6.02,34.17 C7.76454657,31.9217816 9.25996718,29.4908848 10.48,26.92 C10.6401063,26.6486227 10.7358914,26.3441631 10.76,26.03 C10.74,24.6 8.67,24.01 8.48,22.62 C8.45022555,22.2120559 8.52239212,21.803112 8.69,21.43 C9.26667192,20.2042401 9.76109856,18.9414478 10.17,17.65 C10.4161279,16.4653226 10.7333687,15.2965408 11.12,14.15 C11.9585981,11.8496676 13.2508376,9.74127689 14.92,7.95 C17.37,5.36 20.99,4.08 24.41,3.4 C26.9456224,2.85244071 29.5095166,2.44515544 32.09,2.18 C36.6646239,2.84104823 40.9613464,4.77457335 44.49,7.76 C47.1927291,9.77631392 49.1683037,12.6151058 50.12,15.85 C50.8451888,18.5213389 51.1852867,21.2825294 51.13,24.05 C51.110834,26.7831121 50.3129958,29.4541358 48.83,31.75 C47.34,34.1 45.39,36.14 44.26,38.71 Z" id="Shape" fill="#E8EDFC" fill-rule="nonzero" data-original="#E8EDFC" class="active-path" style="fill:#13C575" data-old_color="#13c575"/><path d="M53,21.23 C53.0655274,24.3848919 51.9531693,27.4510073 49.88,29.83 C47.92,32.01 44,33.51 44,37 L38,37 C38,33.51 34.08,32.01 32.12,29.83 C30.0509412,27.4485876 28.9391784,24.3841132 29,21.23 C29.0777916,15.1687095 33.5124263,10.0456506 39.5,9.1 C39.9970031,9.0312081 40.4982634,8.99779075 41,9 C47.6404631,9.18071103 52.9453776,14.587303 53,21.23 Z" id="Shape" fill="#A4C2F7" data-original="#A4C2F7"/><path d="M50,21.23 C50.0655274,24.3848919 48.9531693,27.4510073 46.88,29.83 C44.92,32.01 41,33.51 41,37 L38,37 C38,33.51 34.08,32.01 32.12,29.83 C30.0509412,27.4485876 28.9391784,24.3841132 29,21.23 C29.0777916,15.1687095 33.5124263,10.0456506 39.5,9.1 C45.4894871,10.0422042 49.9258934,15.1673098 50,21.23 Z" id="Shape" fill="#E8EDFC" data-original="#E8EDFC" class="active-path" style="fill:#13C575" data-old_color="#13c575"/><path d="M38,43 L44,43 L44,44 C44,45.6568542 42.6568542,47 41,47 C39.3431458,47 38,45.6568542 38,44 L38,43 Z" id="Shape" fill="#FFFFFF" fill-rule="nonzero" data-original="#FFFFFF"/><path d="M46,39 L46,41 C46,42.1045695 45.1045695,43 44,43 L38,43 C36.8967981,42.9967052 36.0032948,42.1032019 36,41 L36,39 C36.0032948,37.8967981 36.8967981,37.0032948 38,37 L44,37 C45.1045695,37 46,37.8954305 46,39 Z" id="Shape" fill="#7FACFA" data-original="#7FACFA" class=""/><path d="M43,39 L43,41 C43,42.1045695 42.1045695,43 41,43 L38,43 C36.8967981,42.9967052 36.0032948,42.1032019 36,41 L36,39 C36.0032948,37.8967981 36.8967981,37.0032948 38,37 L41,37 C42.1045695,37 43,37.8954305 43,39 Z" id="Shape" fill="#A4C2F7" data-original="#A4C2F7"/><path d="M4.885,21.074 C5.305,19.983 5.811,19.033 6.125,18.107 C6.204,17.877 6.272,17.649 6.325,17.423 L6.51,16.632 C6.635,16.1 6.766,15.558 6.922,15.012 C7.56277122,12.8108237 8.59011814,10.741231 9.956,8.9 C10.3793703,8.32910856 10.8358188,7.78350741 11.323,7.266 L12.777,8.638 C12.3437636,9.09898177 11.9377428,9.58480432 11.561,10.093 C10.3404251,11.740808 9.42123861,13.5917076 8.846,15.56 C8.705,16.06 8.581,16.567 8.458,17.09 L8.273,17.881 C8.201,18.181 8.114,18.474 8.017,18.756 C7.627,19.883 7.108,20.856 6.754,21.786 L4.885,21.074 Z" id="Shape" fill="#FFFFFF" fill-rule="nonzero" data-original="#FFFFFF"/><path d="M7.513,16.739 C6.97965754,16.6186944 6.44752913,16.9450665 6.313,17.475 C5.90966204,18.702424 5.43314151,19.9045781 4.886,21.075 L6.755,21.787 C7.33781113,20.5422809 7.8388732,19.2608981 8.255,17.951 C8.31868433,17.691802 8.27610737,17.4179011 8.13674647,17.1902658 C7.99738557,16.9626305 7.77280686,16.8001531 7.513,16.739 Z" id="Shape" fill="#428DFF" fill-rule="nonzero" data-original="#428DFF" class="" style="fill:#5A15C5" data-old_color="#5a15c5"/><path d="M12.777,8.636 L11.323,7.264 C10.8357572,7.78215357 10.3793077,8.32842388 9.956,8.9 C9.74466667,9.18266667 9.54266667,9.47133333 9.35,9.766 C9.19598673,9.98983019 9.14170008,10.2675101 9.20007769,10.5328629 C9.2584553,10.7982157 9.4242683,11.0274737 9.658,11.166 C10.1210932,11.4364572 10.7142583,11.3058999 11.021,10.866 C11.193,10.5993333 11.373,10.3416667 11.561,10.093 C11.9376805,9.58411975 12.3437024,9.09762806 12.777,8.636 Z" id="Shape" fill="#428DFF" fill-rule="nonzero" data-original="#428DFF" class="" style="fill:#5A15C5" data-old_color="#5a15c5"/><path d="M7.427,13.5 C7.32867489,13.7587753 7.33477066,14.0456352 7.444,14.3 L7.544,14.466 C7.58465947,14.5204844 7.63280027,14.5689618 7.687,14.61 C7.73213663,14.6547458 7.78370602,14.6924959 7.84,14.722 C7.89936907,14.7526915 7.96085964,14.7790923 8.024,14.801 C8.27631686,14.8751739 8.54679937,14.8570944 8.787,14.75 C8.89928822,14.6938097 9.00083164,14.6183291 9.087,14.527 C9.34903296,14.2456908 9.423242,13.837541 9.277,13.482 C9.22340304,13.3633266 9.14888143,13.2552703 9.057,13.163 C8.96683743,13.0681824 8.85963924,12.9911761 8.741,12.936 C8.49719435,12.82929 8.22103842,12.8235368 7.973,12.92 C7.72301377,13.0356873 7.52739338,13.2434891 7.427,13.5 Z" id="Shape" fill="#428DFF" fill-rule="nonzero" data-original="#428DFF" class="" style="fill:#5A15C5" data-old_color="#5a15c5"/><path d="M10.511,56 C8.86145152,55.9690108 7.4263849,54.8624583 6.977,53.275 C6.66129272,52.4143284 6.54869822,51.4923539 6.648,50.581 C6.682,50.318 6.739,50.05 6.798,49.781 C6.91941128,49.3932674 6.95356021,48.9834802 6.898,48.581 C6.817,48.268 6.586,48.111 5.998,47.774 C5.764,47.641 5.527,47.505 5.305,47.348 C4.97961897,47.1166988 4.76486098,46.7607003 4.712,46.365 C4.67348978,45.8623148 4.78670505,45.359639 5.037,44.922 C4.697,44.661 4.324,44.367 4.108,44.172 C3.184,43.417 3.797,42.333 4.163,41.686 C4.298,41.449 4.454,41.174 4.603,40.854 C4.74059405,40.5365137 4.78028854,40.1851827 4.717,39.845 C4.666,39.586 3.942,39.216 3.51,38.995 C3.1474244,38.8245466 2.79986084,38.6238362 2.471,38.395 C1.75385904,37.9902979 1.2306081,37.3130648 1.02,36.517 C0.859,35.49 1.62,34.463 2.339,33.582 C4.05238629,31.3752561 5.52099974,28.9889269 6.719,26.465 C6.7962306,26.3287906 6.85380114,26.1823392 6.89,26.03 C6.89,25.755 6.565,25.439 6.076,24.99 C5.33719314,24.4448672 4.8195742,23.6517529 4.618,22.756 C4.56151568,22.1848389 4.65276773,21.6087458 4.883,21.083 C5.00021597,20.7389111 5.29491991,20.485529 5.65269387,20.4212286 C6.01046783,20.3569282 6.37495692,20.4918378 6.60464931,20.7735791 C6.83434171,21.0553204 6.89305732,21.4395148 6.758,21.777 C6.65963252,21.9976568 6.60560797,22.2355007 6.599,22.477 C6.643,22.8 7.024,23.15 7.429,23.521 C8.25404392,24.1043679 8.78670832,25.0158401 8.89,26.021 C8.8701633,26.4951367 8.73638895,26.9575157 8.5,27.369 C7.24867217,30.0046226 5.71431122,32.4962826 3.924,34.8 C3.162,35.729 3.005,36.1 3,36.246 C3.18473805,36.4265806 3.38557095,36.5899247 3.6,36.734 C3.86019867,36.9156759 4.13516022,37.0752339 4.422,37.211 C5.275,37.647 6.443,38.245 6.683,39.465 C6.82565982,40.2207273 6.73244627,41.0020454 6.416,41.703 C6.241,42.073 6.062,42.393 5.905,42.668 C5.856,42.755 5.805,42.851 5.755,42.938 C6.169,43.272 6.735,43.696 6.975,43.872 C7.19388844,44.0330397 7.33781247,44.2762258 7.37365331,44.5455979 C7.40949414,44.8149701 7.33416497,45.0873285 7.165,45.3 C7.01691908,45.4930204 6.88797779,45.6999963 6.78,45.918 L6.988,46.037 C7.87170549,46.4178672 8.5469139,47.1631135 8.839,48.08 C8.98565126,48.7860121 8.95576742,49.5173075 8.752,50.209 C8.706,50.418 8.658,50.626 8.632,50.836 C8.57350619,51.4408023 8.65388223,52.0509761 8.867,52.62 C9.08520556,53.5441371 9.99375512,54.1314511 10.926,53.951 C13.8403482,53.2506858 16.7117997,52.3825725 19.526,51.351 C20.0479091,51.1695745 20.6180745,51.4455909 20.7995,51.9675 C20.9809255,52.4894091 20.7049091,53.0595745 20.183,53.241 C17.2887222,54.3017843 14.334635,55.19165 11.336,55.906 C11.0649819,55.9657263 10.7885074,55.9972277 10.511,56 Z M5.411,42.659 L5.443,42.688 C5.43377066,42.6766361 5.42374541,42.6659425 5.413,42.656 L5.411,42.659 Z" id="Shape" fill="#428DFF" fill-rule="nonzero" data-original="#428DFF" class="" style="fill:#5A15C5" data-old_color="#5a15c5"/><path d="M12.05,8.95 C11.6505745,8.95013686 11.2893784,8.71257247 11.1313026,8.34575817 C10.9732267,7.97894386 11.0485947,7.55324547 11.323,7.263 C13.559,4.9 16.836,3.316 21.345,2.419 C24.5310865,1.72059835 27.7640828,1.25668862 31.018,1.031 C32.741255,0.93724101 34.4695916,1.03584978 36.171,1.325 C36.7039844,1.43027041 37.0554211,1.94181837 36.9624952,2.47709308 C36.8695693,3.01236779 36.3662791,3.37553169 35.829,3.295 C34.2746881,3.03232644 32.6960458,2.94277949 31.122,3.028 C27.9659304,3.24973351 24.8302616,3.70160137 21.74,4.38 C17.704,5.18 14.689,6.615 12.776,8.637 C12.5872672,8.83662757 12.3247202,8.94981934 12.05,8.95 Z" id="Shape" fill="#428DFF" fill-rule="nonzero" data-original="#428DFF" class="" style="fill:#5A15C5" data-old_color="#5a15c5"/><path d="M24.78,61 C24.3194886,60.9998779 23.9186017,60.6852787 23.809,60.238 C23.421,58.657 21.88,54.314 19.438,53.211 C19.0639436,53.0419148 18.8312137,52.6614066 18.8510746,52.25139 C18.8709354,51.8413735 19.1393525,51.4851405 19.528,51.353 C20.57,50.999 21.515,50.669 22.258,50.409 C22.951,50.167 23.473,49.985 23.744,49.898 C27.901,48.583 28.744,47.082 28.72,46.053 C28.7138345,45.7872547 28.8137271,45.5299897 28.9976105,45.338038 C29.1814939,45.1460862 29.4342349,45.0352448 29.7,45.03 C29.9672176,45.0162628 30.2283187,45.1130603 30.4220047,45.2976672 C30.6156907,45.4822741 30.7249023,45.738431 30.724,46.006 C30.782,48.498 28.64,50.449 24.356,51.806 C24.097,51.889 23.592,52.065 22.922,52.299 L22.022,52.614 C23.671106,54.4424992 24.8739191,56.6283742 25.536,59 L48.218,58.937 L48.151,58.837 C47.8630969,58.4195592 47.6041562,57.9828684 47.376,57.53 C46.879054,56.5216399 46.4640482,55.4749292 46.135,54.4 C45.53656,52.3743367 45.1192532,50.2995152 44.888,48.2 C44.8317194,47.8393617 44.9764011,47.4767071 45.2654697,47.2538466 C45.5545383,47.030986 45.9420686,46.9833261 46.2765229,47.1295034 C46.6109772,47.2756806 46.8392198,47.5924715 46.872,47.956 C47.0898117,49.9368428 47.4826807,51.894495 48.046,53.806 C48.3448152,54.7829676 48.7223866,55.7340866 49.175,56.65 C49.3660492,57.0248282 49.5822082,57.3863183 49.822,57.732 C50.2467748,58.3148965 50.587758,58.9544505 50.835,59.632 C50.9304293,59.9354437 50.8757998,60.2661879 50.6878608,60.5228273 C50.4999218,60.7794667 50.201095,60.9313833 49.883,60.932 L24.783,61.002 L24.78,61 Z" id="Shape" fill="#428DFF" fill-rule="nonzero" data-original="#428DFF" class="" style="fill:#5A15C5" data-old_color="#5a15c5"/><path d="M11.194,19.567 C11.1175799,19.5671865 11.0413988,19.5584609 10.967,19.541 C10.4295239,19.4156657 10.0952009,18.8786006 10.22,18.341 L10.32,17.908 C10.5135358,16.9912196 10.7609653,16.0866495 11.061,15.199 C11.7563731,13.2745624 12.8336163,11.5105639 14.228,10.013 C15.7606426,8.53520641 17.6483921,7.47750189 19.709,6.942 C20.0532577,6.82944433 20.4314681,6.91183364 20.6977164,7.1573819 C20.9639648,7.40293017 21.0766292,7.7732514 20.9922433,8.12547458 C20.9078574,8.47769775 20.6396132,8.75676066 20.291,8.855 C18.564379,9.29286276 16.9780184,10.1640016 15.682,11.386 C14.4735935,12.6858825 13.5402565,14.2165007 12.938,15.886 C12.6689717,16.6919424 12.4462745,17.5126167 12.271,18.344 L12.171,18.789 C12.0672192,19.2448199 11.6614841,19.567913 11.194,19.567 Z" id="Shape" fill="#A4C2F7" fill-rule="nonzero" data-original="#A4C2F7"/><circle id="Oval" fill="#A4C2F7" fill-rule="nonzero" cx="10" cy="22" r="1" data-original="#A4C2F7"/><path d="M44,44 L38,44 C36.3431458,44 35,42.6568542 35,41 L35,39 C35,37.3431458 36.3431458,36 38,36 L44,36 C45.6568542,36 47,37.3431458 47,39 L47,41 C47,42.6568542 45.6568542,44 44,44 Z M38,38 C37.4477153,38 37,38.4477153 37,39 L37,41 C37,41.5522847 37.4477153,42 38,42 L44,42 C44.5522847,42 45,41.5522847 45,41 L45,39 C45,38.4477153 44.5522847,38 44,38 L38,38 Z" id="Shape" fill="#428DFF" fill-rule="nonzero" data-original="#428DFF" class="" style="fill:#5A15C5" data-old_color="#5a15c5"/><path d="M41,48 C38.790861,48 37,46.209139 37,44 L37,43 C37,42.4477153 37.4477153,42 38,42 L44,42 C44.5522847,42 45,42.4477153 45,43 L45,44 C45,46.209139 43.209139,48 41,48 Z M39,44 C39,45.1045695 39.8954305,46 41,46 C42.1045695,46 43,45.1045695 43,44 L39,44 Z" id="Shape" fill="#428DFF" fill-rule="nonzero" data-original="#428DFF" class="" style="fill:#5A15C5" data-old_color="#5a15c5"/><path d="M43,38 C42.4477153,38 42,37.5522847 42,37 L42,25 L40,25 L40,37 C40,37.5522847 39.5522847,38 39,38 C38.4477153,38 38,37.5522847 38,37 L38,25 L37,25 C35.3431458,25 34,23.6568542 34,22 C34,20.3431458 35.3431458,19 37,19 C38.6568542,19 40,20.3431458 40,22 L40,23 L42,23 L42,22 C42,20.3431458 43.3431458,19 45,19 C46.6568542,19 48,20.3431458 48,22 C48,23.6568542 46.6568542,25 45,25 L44,25 L44,37 C44,37.5522847 43.5522847,38 43,38 Z M44,23 L45,23 C45.5522847,23 46,22.5522847 46,22 C46,21.4477153 45.5522847,21 45,21 C44.4477153,21 44,21.4477153 44,22 L44,23 Z M37,21 C36.4477153,21 36,21.4477153 36,22 C36,22.5522847 36.4477153,23 37,23 L38,23 L38,22 C38,21.4477153 37.5522847,21 37,21 Z" id="Shape" fill="#A4C2F7" fill-rule="nonzero" data-original="#A4C2F7"/><path d="M44,38 L38,38 C37.4477153,38 37,37.5522847 37,37 C37,35.065 35.388,33.819 33.682,32.5 C32.8576161,31.9027636 32.0879236,31.2334657 31.382,30.5 C29.1381829,27.9319147 27.9323342,24.6195745 28,21.21 C28.0278976,14.0073776 33.7987493,8.14330443 41,8 C48.2012507,8.14330443 53.9721024,14.0073776 54,21.21 C54.0686465,24.6186708 52.8650576,27.9306792 50.624,30.5 C49.9178481,31.2332256 49.1481778,31.9025042 48.324,32.5 C46.613,33.819 45,35.065 45,37 C45,37.5522847 44.5522847,38 44,38 Z M38.91,36 L43.09,36 C43.52,33.682 45.407,32.223 47.097,30.917 C47.8252342,30.390965 48.506758,29.8031215 49.134,29.16 C51.0397544,26.96793 52.0614081,24.1450144 52,21.241 C51.905,15.147 46.87,10 41,10 C35.13,10 30.1,15.147 30,21.241 C29.9374615,24.144846 30.9584638,26.9679315 32.864,29.16 C33.4916066,29.8034185 34.1734592,30.3915917 34.902,30.918 C36.6,32.224 38.481,33.682 38.911,36 L38.91,36 Z" id="Shape" fill="#428DFF" fill-rule="nonzero" data-original="#428DFF" class="" style="fill:#5A15C5" data-old_color="#5a15c5"/><path d="M60,22 L57,22 C56.4477153,22 56,21.5522847 56,21 C56,20.4477153 56.4477153,20 57,20 L60,20 C60.5522847,20 61,20.4477153 61,21 C61,21.5522847 60.5522847,22 60,22 Z" id="Shape" fill="#428DFF" fill-rule="nonzero" data-original="#428DFF" class="" style="fill:#5A15C5" data-old_color="#5a15c5"/><path d="M52.313,10.687 C51.9081643,10.687319 51.5430763,10.44352 51.3882414,10.0694636 C51.2334066,9.69540717 51.3193761,9.26489995 51.606,8.979 L53.728,6.858 C53.9790745,6.59804342 54.3508779,6.4937874 54.7005073,6.58530284 C55.0501368,6.67681828 55.3231817,6.94986324 55.4146972,7.29949268 C55.5062126,7.64912211 55.4019566,8.02092553 55.142,8.272 L53.021,10.394 C52.8332623,10.5817946 52.5785413,10.6872088 52.313,10.687 Z" id="Shape" fill="#428DFF" fill-rule="nonzero" data-original="#428DFF" class="" style="fill:#5A15C5" data-old_color="#5a15c5"/><path d="M41,6 C40.4477153,6 40,5.55228475 40,5 L40,2 C40,1.44771525 40.4477153,1 41,1 C41.5522847,1 42,1.44771525 42,2 L42,5 C42,5.55228475 41.5522847,6 41,6 Z" id="Shape" fill="#428DFF" fill-rule="nonzero" data-original="#428DFF" class="" style="fill:#5A15C5" data-old_color="#5a15c5"/><path d="M29.687,10.687 C29.4214587,10.6872088 29.1667377,10.5817946 28.979,10.394 L26.858,8.272 C26.5980434,8.02092553 26.4937874,7.64912211 26.5853028,7.29949268 C26.6768183,6.94986324 26.9498632,6.67681828 27.2994927,6.58530284 C27.6491221,6.4937874 28.0209255,6.59804342 28.272,6.858 L30.394,8.979 C30.6806239,9.26489995 30.7665934,9.69540717 30.6117586,10.0694636 C30.4569237,10.44352 30.0918357,10.687319 29.687,10.687 Z" id="Shape" fill="#428DFF" fill-rule="nonzero" data-original="#428DFF" class="" style="fill:#5A15C5" data-old_color="#5a15c5"/><path d="M25,22 L22,22 C21.4477153,22 21,21.5522847 21,21 C21,20.4477153 21.4477153,20 22,20 L25,20 C25.5522847,20 26,20.4477153 26,21 C26,21.5522847 25.5522847,22 25,22 Z" id="Shape" fill="#428DFF" fill-rule="nonzero" data-original="#428DFF" class="" style="fill:#5A15C5" data-old_color="#5a15c5"/></g></g></g> </svg>
